<?xml version="1.0" standalone="no"?>
<!DOCTYPE svg PUBLIC "-//W3C//DTD SVG 20010904//EN"
 "http://www.w3.org/TR/2001/REC-SVG-20010904/DTD/svg10.dtd">
<svg version="1.0" xmlns="http://www.w3.org/2000/svg"
 width="260.000000pt" height="260.000000pt" viewBox="0 0 260.000000 260.000000"
 preserveAspectRatio="xMidYMid meet">
<metadata>
Created by potrace 1.14, written by Peter Selinger 2001-2017
</metadata>
<g transform="translate(0.000000,260.000000) scale(0.100000,-0.100000)"
fill="#000000" stroke="none">
<path d="M635 2593 c-228 -48 -379 -142 -498 -309 -89 -125 -128 -245 -133
-405 -6 -213 64 -394 207 -537 l43 -42 -36 -38 c-67 -71 -80 -87 -112 -142
-76 -130 -107 -255 -102 -406 7 -201 75 -355 221 -499 90 -90 186 -147 315
-186 60 -19 98 -24 195 -24 209 0 357 56 508 194 l57 53 50 -48 c148 -144 349
-215 562 -200 327 24 593 255 674 587 4 13 8 76 9 139 2 89 -2 131 -17 184
-36 130 -102 246 -192 339 l-45 47 44 44 c95 94 167 227 199 365 21 91 14 267
-14 356 -101 317 -369 522 -692 531 -206 5 -382 -63 -529 -206 l-50 -49 -32
32 c-87 88 -189 151 -312 193 -64 21 -101 27 -190 29 -60 2 -119 1 -130 -2z
m794 -849 c336 -96 446 -524 199 -773 -130 -131 -341 -171 -513 -98 -27 12
-56 27 -63 34 -7 7 -17 13 -22 13 -5 0 -30 22 -57 49 -186 187 -180 494 14
671 75 69 140 101 233 116 19 3 36 7 37 8 8 7 125 -6 172 -20z"/>
</g>
</svg>
