<svg width="260" height="260" viewBox="0 0 260 260" fill="none" xmlns="http://www.w3.org/2000/svg">
<path d="M260 74.2857C260 33.6607 226.339 0 185.714 0C163.08 0 143.348 10.4464 130 26.1161C116.071 10.4464 96.3393 0 74.2857 0C33.0804 0 0 33.6607 0 74.2857C0 96.9196 9.86607 116.652 25.5357 130C9.86607 143.929 0 163.661 0 185.714C0 226.92 33.0804 260 74.2857 260C96.3393 260 116.071 250.134 130 234.464C143.348 250.134 163.08 260 185.714 260C226.339 260 260 226.92 260 185.714C260 163.661 249.554 143.929 233.884 130C249.554 116.652 260 96.9196 260 74.2857ZM130 176.429C103.884 176.429 83.5714 156.116 83.5714 130C83.5714 104.464 103.884 83.5714 130 83.5714C155.536 83.5714 176.429 104.464 176.429 130C176.429 156.116 155.536 176.429 130 176.429Z" fill="#BE4310"/>
</svg>
